<svg width="224" height="39" viewBox="0 0 224 39" fill="none" xmlns="http://www.w3.org/2000/svg">
<path d="M0.272 2.2H5.504V37H0.272V2.2ZM14.0533 0.663999C14.3413 1.112 14.9333 1.976 15.8293 3.256C16.7573 4.504 17.8133 5.96 18.9973 7.624C20.2133 9.288 21.4933 11.064 22.8373 12.952C24.1813 14.808 25.4453 16.568 26.6293 18.232C27.8133 19.864 28.8373 21.288 29.7013 22.504C30.5973 23.72 31.1893 24.52 31.4773 24.904C31.5733 24.744 31.8773 24.312 32.3893 23.608C32.9013 22.904 33.5253 22.024 34.2613 20.968C35.0293 19.912 35.8933 18.728 36.8533 17.416C37.8133 16.072 38.7893 14.712 39.7812 13.336C40.8053 11.928 41.7973 10.536 42.7573 9.16C43.7493 7.784 44.6613 6.536 45.4933 5.416C46.3253 4.264 47.0293 3.272 47.6053 2.44C48.2133 1.576 48.6453 0.983998 48.9013 0.663999V37H43.3333V17.512C43.3333 17.256 43.3493 16.984 43.3813 16.696C43.4453 16.408 43.4773 16.2 43.4773 16.072C43.1893 16.456 42.7253 17.112 42.0853 18.04C41.4773 18.936 40.7573 19.976 39.9253 21.16C39.1253 22.312 38.2773 23.544 37.3813 24.856C36.4853 26.136 35.6373 27.352 34.8373 28.504C34.0373 29.656 33.3333 30.68 32.7253 31.576C32.1173 32.44 31.7013 33.048 31.4773 33.4C31.2533 33.112 30.8053 32.52 30.1333 31.624C29.4933 30.696 28.7253 29.624 27.8293 28.408C26.9653 27.192 26.0373 25.896 25.0453 24.52C24.0853 23.144 23.1893 21.864 22.3573 20.68C21.5253 19.496 20.8053 18.488 20.1973 17.656C19.5893 16.792 19.2373 16.264 19.1413 16.072C19.1413 16.2 19.1573 16.408 19.1893 16.696C19.2533 16.984 19.2853 17.256 19.2853 17.512V37H14.0533V0.663999ZM79.0115 37C78.8515 36.648 78.6275 36.136 78.3395 35.464C78.0515 34.792 77.7155 34.024 77.3315 33.16C76.9795 32.264 76.5795 31.304 76.1315 30.28C75.7155 29.224 75.2835 28.136 74.8355 27.016H62.5475L58.4195 37H53.2355L68.7395 0.567997C68.9315 1.016 69.2675 1.832 69.7475 3.016C70.2595 4.2 70.8515 5.624 71.5235 7.288C72.2275 8.92 72.9955 10.744 73.8275 12.76C74.6915 14.744 75.5555 16.76 76.4195 18.808C77.3155 20.856 78.1795 22.872 79.0115 24.856C79.8755 26.84 80.6595 28.664 81.3635 30.328C82.0675 31.992 82.6595 33.416 83.1395 34.6C83.6515 35.752 84.0035 36.552 84.1955 37H79.0115ZM64.3715 22.6H73.0595C72.6115 21.544 72.1795 20.536 71.7635 19.576C71.3795 18.584 71.0115 17.688 70.6595 16.888C70.3395 16.056 70.0515 15.336 69.7955 14.728C69.5395 14.12 69.3475 13.64 69.2195 13.288C69.1875 13.224 69.1075 13 68.9795 12.616C68.8835 12.232 68.8035 11.88 68.7395 11.56C68.6755 11.88 68.5795 12.232 68.4515 12.616C68.3235 13 68.2435 13.224 68.2115 13.288L64.3715 22.6ZM119.066 2.2V38.584C118.618 38.008 117.754 37.08 116.474 35.8C115.194 34.52 113.722 33.048 112.058 31.384C110.394 29.72 108.618 27.976 106.73 26.152C104.874 24.328 103.114 22.6 101.45 20.968C99.7856 19.304 98.3296 17.832 97.0816 16.552C95.8336 15.24 95.0016 14.312 94.5856 13.768L93.6736 12.52L93.8176 14.056V37H88.5376V0.567997C88.8896 1.016 89.4656 1.656 90.2656 2.488C91.0976 3.32 92.0576 4.296 93.1456 5.416C94.2656 6.504 95.4816 7.688 96.7936 8.968C98.1376 10.248 99.4816 11.544 100.826 12.856C102.202 14.168 103.546 15.464 104.858 16.744C106.202 17.992 107.418 19.16 108.506 20.248C109.626 21.336 110.586 22.296 111.386 23.128C112.186 23.96 112.746 24.584 113.066 25L113.978 26.344L113.834 24.712V2.2H119.066ZM127.631 37V2.2H150.479V6.952H132.911V17.128H148.559V21.976H132.911V32.152H151.151V37H127.631ZM198.104 2.344C196.952 5.384 195.72 8.584 194.408 11.944C193.128 15.272 191.848 18.552 190.568 21.784C189.32 25.016 188.136 28.088 187.016 31C185.896 33.912 184.952 36.424 184.184 38.536L176.408 19.096C176.312 18.84 176.232 18.648 176.168 18.52C176.104 18.392 176.04 18.2 175.976 17.944C175.976 18.072 175.96 18.2 175.928 18.328C175.896 18.424 175.864 18.536 175.832 18.664C175.8 18.792 175.768 18.92 175.736 19.048C174.648 21.544 173.576 23.992 172.52 26.392C172.072 27.416 171.608 28.472 171.128 29.56C170.648 30.648 170.184 31.736 169.736 32.824C169.288 33.88 168.84 34.904 168.392 35.896C167.976 36.888 167.592 37.784 167.24 38.584C164.936 32.536 162.616 26.504 160.28 20.488C157.944 14.472 155.624 8.424 153.32 2.344H159.224C159.992 4.456 160.776 6.584 161.576 8.728C162.408 10.872 163.176 12.936 163.88 14.92C164.616 16.904 165.272 18.744 165.848 20.44C166.424 22.136 166.872 23.576 167.192 24.76L167.576 26.44C167.608 26.28 167.688 26.024 167.816 25.672C167.944 25.288 168.04 25.016 168.104 24.856C168.136 24.728 168.248 24.44 168.44 23.992C168.632 23.544 168.856 23.016 169.112 22.408C169.368 21.768 169.656 21.08 169.976 20.344C170.296 19.608 170.616 18.856 170.936 18.088C171.704 16.328 172.552 14.376 173.48 12.232C172.936 10.728 172.456 9.32 172.04 8.008C171.656 6.888 171.288 5.784 170.936 4.696C170.616 3.608 170.376 2.824 170.216 2.344H175.256C176.632 5.96 177.912 9.304 179.096 12.376C179.576 13.688 180.056 15 180.536 16.312C181.048 17.624 181.512 18.84 181.928 19.96C182.376 21.08 182.76 22.072 183.08 22.936C183.4 23.768 183.624 24.376 183.752 24.76C183.848 25.048 183.912 25.336 183.944 25.624C184.008 25.88 184.072 26.152 184.136 26.44C184.2 26.152 184.248 25.864 184.28 25.576C184.344 25.288 184.408 25.016 184.472 24.76C184.76 23.512 185.208 22.024 185.816 20.296C186.424 18.568 187.096 16.712 187.832 14.728C188.6 12.744 189.4 10.696 190.232 8.584C191.064 6.44 191.864 4.36 192.632 2.344H198.104ZM221.942 4.12L220.07 8.392C218.758 7.912 217.446 7.528 216.134 7.24C214.854 6.952 213.622 6.808 212.438 6.808C210.422 6.808 208.806 7.224 207.59 8.056C206.406 8.888 205.814 9.944 205.814 11.224C205.814 12.312 206.246 13.192 207.11 13.864C207.974 14.504 209.046 15.096 210.326 15.64C211.606 16.152 212.998 16.68 214.502 17.224C216.006 17.736 217.398 18.408 218.678 19.24C219.958 20.072 221.03 21.128 221.894 22.408C222.758 23.656 223.19 25.272 223.19 27.256C223.19 28.792 222.902 30.184 222.326 31.432C221.782 32.648 220.95 33.704 219.83 34.6C218.742 35.496 217.366 36.184 215.702 36.664C214.07 37.144 212.15 37.384 209.942 37.384C208.534 37.384 207.254 37.288 206.102 37.096C204.982 36.904 203.958 36.664 203.03 36.376C202.134 36.056 201.334 35.72 200.63 35.368C199.958 35.016 199.382 34.696 198.902 34.408L201.206 29.848C202.486 30.584 203.91 31.176 205.478 31.624C207.046 32.072 208.47 32.296 209.75 32.296C210.39 32.296 211.174 32.216 212.102 32.056C213.062 31.896 213.974 31.624 214.838 31.24C215.702 30.824 216.438 30.28 217.046 29.608C217.686 28.936 218.006 28.088 218.006 27.064C218.006 26.136 217.75 25.352 217.238 24.712C216.758 24.04 216.102 23.464 215.27 22.984C214.47 22.472 213.542 22.024 212.486 21.64C211.462 21.224 210.406 20.808 209.318 20.392C208.23 19.944 207.158 19.48 206.102 19C205.078 18.52 204.15 17.944 203.318 17.272C202.518 16.568 201.862 15.768 201.35 14.872C200.87 13.944 200.63 12.84 200.63 11.56C200.63 10.376 200.87 9.208 201.35 8.056C201.83 6.904 202.55 5.88 203.51 4.984C204.47 4.088 205.654 3.368 207.062 2.824C208.502 2.28 210.166 2.008 212.054 2.008C213.206 2.008 214.326 2.104 215.414 2.296C216.534 2.488 217.542 2.712 218.438 2.968C219.334 3.192 220.086 3.416 220.694 3.64C221.334 3.864 221.75 4.024 221.942 4.12Z" fill="white"/>
</svg>
